<svg width="245" height="49" viewBox="0 0 245 49" fill="none" xmlns="http://www.w3.org/2000/svg">
<path d="M128.657 13.6077C129.857 9.63737 131.055 5.66709 132.256 1.69709C132.584 0.613724 132.967 0.325146 134.103 0.31408C134.817 0.30727 135.532 0.29677 136.246 0.321457C137.084 0.350683 137.363 0.627627 137.45 1.46016C137.471 1.66134 137.465 1.86564 137.465 2.06881C137.466 6.88326 137.466 11.698 137.465 16.5124C137.465 16.7153 137.471 16.9199 137.449 17.1211C137.36 17.955 137.04 18.2442 136.182 18.2799C136.101 18.2833 136.019 18.2811 135.937 18.2814C134.494 18.2882 134.21 18.0112 134.209 16.5933C134.209 12.9164 134.209 9.23926 134.209 5.56239V4.91912C134.17 4.91287 134.131 4.90663 134.092 4.9001C133.744 6.05101 133.397 7.2022 133.048 8.3531C132.168 11.2576 131.29 14.1627 130.405 17.0658C130.113 18.024 129.763 18.2754 128.775 18.2814C127.498 18.289 127.154 18.0881 126.839 17.0561C125.686 13.2833 124.547 9.50628 123.401 5.7315C123.32 5.46506 123.228 5.20174 123.031 4.93841C123.031 5.14357 123.031 5.34872 123.031 5.55387C123.031 9.25118 123.033 12.9485 123.028 16.6458C123.027 17.1878 123.107 17.814 122.493 18.0907C121.782 18.4119 120.991 18.4471 120.319 18.0473C120.049 17.8867 119.867 17.3753 119.859 17.0192C119.816 14.9682 119.837 12.9161 119.837 10.8643C119.837 7.81709 119.834 4.76986 119.839 1.72263C119.84 0.621953 120.142 0.326281 121.262 0.314364C121.976 0.306702 122.691 0.299325 123.405 0.318053C124.332 0.342455 124.74 0.643518 125 1.52571C125.751 4.06729 126.483 6.61398 127.226 9.15754C127.66 10.6475 128.1 12.1358 128.538 13.625C128.578 13.6193 128.617 13.6133 128.657 13.6077Z" fill="#F25A1C"/>
<path d="M215.658 5.30714C215.658 9.08532 215.658 12.8635 215.657 16.6414C215.657 17.1856 215.765 17.8232 215.144 18.0894C214.394 18.41 213.588 18.4208 212.839 18.0437C212.67 17.9591 212.542 17.7117 212.484 17.5134C212.406 17.2455 212.388 16.953 212.388 16.6712C212.383 11.7543 212.384 6.83771 212.387 1.92111C212.387 1.67907 212.422 1.43646 212.448 1.19499C212.505 0.671462 212.82 0.37125 213.328 0.353658C214.244 0.322161 215.164 0.315635 216.08 0.350821C216.745 0.376075 217.026 0.921448 217.308 1.41802C218.921 4.26009 220.528 7.10472 222.137 9.9485C222.553 10.684 222.97 11.4192 223.479 12.3167C223.497 11.9294 223.515 11.7194 223.516 11.5097C223.517 8.29961 223.515 5.0895 223.519 1.8794C223.519 1.33261 223.446 0.692744 224.089 0.463471C224.824 0.200999 225.615 0.167799 226.337 0.545475C226.515 0.638546 226.631 0.922015 226.694 1.14107C226.765 1.38936 226.759 1.66375 226.759 1.92679C226.762 6.82295 226.762 11.7194 226.76 16.6159C226.76 16.8185 226.755 17.0225 226.733 17.2237C226.656 17.9135 226.386 18.2069 225.689 18.2622C225.161 18.3039 224.627 18.2957 224.098 18.2667C223.429 18.2298 223.066 17.7679 222.758 17.2381C220.545 13.4307 218.328 9.62531 216.11 5.82017C216.001 5.63318 215.88 5.45328 215.765 5.26997C215.729 5.28246 215.693 5.29466 215.658 5.30714Z" fill="#F25A1C"/>
<path d="M71.4273 5.3564C71.4273 5.57347 71.4273 5.79083 71.4273 6.0079C71.4273 9.54262 71.431 13.0773 71.4234 16.6121C71.4222 17.1705 71.5215 17.8294 70.8678 18.1035C70.1337 18.4111 69.3247 18.444 68.6267 18.0436C68.3665 17.8946 68.1974 17.4111 68.173 17.0672C68.11 16.1776 68.1506 15.281 68.1506 14.3871C68.1506 10.2023 68.1497 6.01783 68.1511 1.83303C68.1514 0.600125 68.4281 0.321762 69.6562 0.312966C70.1868 0.309277 70.7199 0.344463 71.2477 0.305021C72.0891 0.242028 72.6228 0.61488 73.0218 1.32767C74.7754 4.46144 76.5497 7.58358 78.3174 10.7094C78.5899 11.1915 78.8682 11.6705 79.2819 12.1095C79.2819 11.8966 79.2819 11.6835 79.2819 11.4704C79.2822 8.1999 79.2805 4.92935 79.2833 1.65881C79.2842 0.667942 79.6009 0.346165 80.588 0.314669C80.8122 0.307575 81.0372 0.306156 81.2614 0.315804C82.1697 0.354962 82.4858 0.648363 82.4872 1.54247C82.4957 6.70225 82.4957 11.862 82.4878 17.0218C82.4864 17.9199 82.1206 18.1806 81.2171 18.2958C79.7232 18.4862 78.8231 17.9202 78.091 16.5879C76.147 13.0504 74.0603 9.59057 72.0292 6.1004C71.8774 5.83963 71.7185 5.58284 71.5627 5.32405C71.5176 5.33484 71.4725 5.34562 71.4273 5.3564Z" fill="#F25A1C"/>
<path d="M159.457 8.22278C160.63 8.22278 161.73 8.24775 162.828 8.21058C163.267 8.19554 163.718 8.09055 164.135 7.94442C165.13 7.59568 165.645 6.77507 165.626 5.6707C165.606 4.54533 165.091 3.73919 164.141 3.45998C162.607 3.00881 161.037 3.24716 159.457 3.19864V8.22278ZM165.982 10.114C167.106 12.4345 168.191 14.6748 169.274 16.9156C169.362 17.0977 169.438 17.2862 169.517 17.4723C169.685 17.8693 169.508 18.1709 169.133 18.1888C168.265 18.2302 167.37 18.2923 166.533 18.121C166.144 18.0412 165.76 17.4868 165.553 17.0614C164.702 15.3126 163.897 13.5403 163.125 11.7552C162.897 11.2294 162.614 11.0399 162.045 11.0748C161.197 11.1267 160.343 11.0884 159.43 11.0884C159.43 12.1224 159.43 13.0917 159.43 14.061C159.43 15.0561 159.439 16.0515 159.426 17.0464C159.416 17.8559 159.049 18.2299 158.23 18.2747C157.864 18.2949 157.495 18.2966 157.129 18.273C156.33 18.2217 155.99 17.8789 155.979 17.0767C155.961 15.7771 155.971 14.4773 155.971 13.1777C155.97 9.40007 155.969 5.62246 155.972 1.84485C155.972 0.578458 156.238 0.307758 157.519 0.314852C159.518 0.325918 161.522 0.283639 163.515 0.405653C164.509 0.46666 165.535 0.720619 166.458 1.09943C168.783 2.05313 169.352 4.2613 169.051 6.39541C168.797 8.19724 167.7 9.38248 165.982 10.114Z" fill="#F25A1C"/>
<path d="M97.4316 9.31553C97.4359 7.43709 97.1788 6.06741 96.615 4.93693C95.9189 3.54087 94.7967 2.74465 93.2269 2.73813C91.6581 2.73188 90.5327 3.51107 89.827 4.90998C89.2856 5.9837 89.104 7.14028 89.016 8.3136C88.8872 10.0283 89.0152 11.7235 89.6934 13.3255C90.323 14.8135 91.4211 15.7074 93.1066 15.7411C94.8338 15.7758 95.9933 14.9373 96.699 13.4073C97.2991 12.1057 97.4396 10.7241 97.4316 9.31553ZM100.923 9.32149C100.87 10.9599 100.659 12.5563 100.026 14.082C98.9494 16.6772 97.0088 18.1896 94.2204 18.4961C91.6581 18.7773 89.3458 18.1616 87.6083 16.1185C86.5133 14.8309 85.9665 13.2904 85.7168 11.6389C85.3045 8.91119 85.4657 6.2439 86.7673 3.75538C88.0343 1.33298 90.0963 0.12873 92.8368 0.0132422C97.5704 -0.186237 100.075 2.96031 100.71 7.02082C100.828 7.78043 100.854 8.55422 100.923 9.32149Z" fill="#F25A1C"/>
<path d="M37.6869 3.07369C36.9599 5.69103 36.2826 8.1299 35.5968 10.5997H39.7793C39.0892 8.11769 38.4139 5.6882 37.6869 3.07369ZM34.7795 13.5377C34.4203 14.8029 34.0844 16.0092 33.7345 17.2117C33.4873 18.0604 33.2081 18.2673 32.3427 18.2803C32.0161 18.2852 31.6892 18.2834 31.3626 18.2806C30.2903 18.2715 30.0675 18.0003 30.3587 16.9918C30.7857 15.5143 31.2315 14.0422 31.6773 12.5704C32.7623 8.9874 33.8582 5.40785 34.9362 1.82319C35.3019 0.607022 35.6558 0.318161 36.9341 0.313053C37.5873 0.3105 38.2411 0.298581 38.8937 0.319863C39.7804 0.34909 40.2083 0.666894 40.46 1.49517C41.6853 5.52305 42.9017 9.55349 44.121 13.5834C44.4726 14.7456 44.8267 15.907 45.1732 17.0707C45.4308 17.9364 45.203 18.2517 44.3077 18.2792C44.0427 18.2874 43.7771 18.2812 43.5115 18.2812C42.0323 18.2812 41.8842 18.168 41.4883 16.7378C41.229 15.8015 40.9864 14.8597 40.6941 13.9338C40.6422 13.7686 40.3848 13.5573 40.2194 13.5547C38.4244 13.5275 36.6285 13.5377 34.7795 13.5377Z" fill="#F25A1C"/>
<path d="M236.89 3.30699C236.844 3.31636 236.798 3.32544 236.751 3.3348C236.083 5.74444 235.414 8.15379 234.734 10.6074H238.922C238.239 8.15407 237.565 5.73053 236.89 3.30699ZM236.94 0.312543C239.234 0.311975 239.279 0.368726 239.929 2.54143C241.332 7.22989 242.754 11.9127 244.181 16.5938C244.639 18.094 244.513 18.281 242.916 18.2812C241.104 18.2815 241.098 18.2829 240.6 16.5787C240.35 15.7246 240.116 14.866 239.891 14.0051C239.802 13.666 239.646 13.5216 239.263 13.5272C237.631 13.5511 235.999 13.5485 234.367 13.5286C234.009 13.5241 233.866 13.6561 233.781 13.979C233.517 14.9761 233.225 15.9655 232.953 16.9604C232.646 18.086 232.404 18.2792 231.258 18.281C230.952 18.2815 230.646 18.2886 230.34 18.2787C229.447 18.2497 229.212 17.9229 229.465 17.0776C229.766 16.0699 230.061 15.0606 230.367 14.0544C231.626 9.91476 232.886 5.77593 234.148 1.63739C234.461 0.609065 234.828 0.333541 235.9 0.313962C236.247 0.307435 236.593 0.312826 236.94 0.312543Z" fill="#F25A1C"/>
<path d="M202.286 3.2611C202.252 3.26024 202.217 3.25911 202.183 3.25826C201.506 5.69684 200.83 8.13541 200.148 10.5913H204.326C203.635 8.10874 202.961 5.68492 202.286 3.2611ZM199.328 13.5395C198.971 14.7954 198.634 16.0011 198.284 17.203C198.03 18.075 197.756 18.2722 196.838 18.2805C196.471 18.2839 196.102 18.2901 195.735 18.2782C194.87 18.2501 194.624 17.9496 194.865 17.1159C195.382 15.3277 195.929 13.5483 196.469 11.7669C197.473 8.45464 198.487 5.1455 199.483 1.83126C199.851 0.606013 200.2 0.318287 201.474 0.31318C202.147 0.310342 202.822 0.296722 203.495 0.322828C204.335 0.355459 204.763 0.68518 205.007 1.48678C206.232 5.51523 207.45 9.54595 208.667 13.5767C209.012 14.7199 209.348 15.8663 209.69 17.0104C209.98 17.9808 209.768 18.2674 208.741 18.2805C208.496 18.2836 208.251 18.2813 208.006 18.2813C206.59 18.281 206.456 18.1814 206.062 16.8015C205.79 15.8478 205.536 14.8885 205.248 13.9396C205.202 13.7852 205.02 13.5582 204.898 13.5565C203.044 13.5321 201.19 13.5395 199.328 13.5395Z" fill="#F25A1C"/>
<path d="M144.897 3.19523V7.60362C145.213 7.60362 145.51 7.60362 145.808 7.60362C146.951 7.60362 148.094 7.62718 149.236 7.59823C150.872 7.5568 150.924 8.66202 150.603 9.84726C150.48 10.3027 150.051 10.3926 149.612 10.3915C148.286 10.3878 146.96 10.3912 145.633 10.3921C145.411 10.3921 145.189 10.3921 144.916 10.3921V15.3481C145.108 15.3572 145.322 15.3754 145.537 15.3756C147.72 15.3779 149.904 15.3742 152.088 15.3788C153.004 15.3807 153.296 15.6679 153.328 16.5691C153.334 16.711 153.333 16.8534 153.33 16.9956C153.305 17.9323 152.98 18.2589 152.02 18.2776C151.285 18.2923 150.551 18.281 149.816 18.281C147.51 18.2813 145.204 18.2841 142.898 18.2796C141.773 18.2776 141.429 17.9379 141.429 16.8333C141.427 11.7964 141.427 6.75946 141.429 1.72255C141.429 0.645986 141.733 0.320237 142.798 0.316549C145.757 0.306334 148.716 0.310874 151.675 0.314279C152.172 0.314846 152.799 0.313711 152.91 0.866179C153.035 1.48646 152.964 2.17684 152.821 2.80081C152.776 2.99291 152.214 3.17168 151.885 3.17707C149.804 3.21112 147.722 3.19495 145.641 3.19523C145.418 3.19523 145.195 3.19523 144.897 3.19523Z" fill="#F25A1C"/>
<path d="M178.958 9.22975C179.033 7.10699 179.33 5.05999 180.465 3.21361C181.699 1.2052 183.55 0.201844 185.866 0.0338621C187.321 -0.0716943 188.759 0.0446457 190.092 0.735586C191.718 1.57777 192.523 3.01299 192.981 4.69366C193.102 5.13859 192.894 5.44306 192.448 5.56989C192.253 5.62523 192.054 5.67063 191.854 5.70326C190.643 5.90075 190.174 6.14705 189.478 4.6372C188.383 2.26048 184.96 2.30077 183.727 4.29414C183.228 5.10085 182.871 6.05057 182.686 6.98185C182.271 9.07822 182.374 11.1848 183.086 13.2216C183.554 14.5615 184.435 15.4791 185.935 15.6318C187.612 15.8026 188.878 15.1815 189.665 13.6705C189.759 13.4909 189.849 13.3087 189.932 13.1237C190.187 12.5548 190.613 12.3465 191.221 12.498C191.675 12.611 192.138 12.6924 192.584 12.8292C193.219 13.0238 193.371 13.3683 193.147 13.9954C192.071 17.0083 189.927 18.5011 186.717 18.5576C184.674 18.5936 182.828 18.1473 181.368 16.6411C180.165 15.4008 179.58 13.8484 179.29 12.1876C179.119 11.2121 179.064 10.2164 178.958 9.22975Z" fill="#F25A1C"/>
<path d="M49.7964 3.19483C48.5339 3.19483 47.3737 3.1988 46.2134 3.19369C45.2799 3.18943 44.9819 2.8949 44.9413 1.95794C44.8846 0.650124 45.197 0.314728 46.5011 0.313309C49.869 0.309904 53.2369 0.309621 56.6047 0.313593C57.9741 0.315012 58.6855 1.46308 58.009 2.66392C57.8584 2.93179 57.3967 3.14857 57.0644 3.16929C56.0276 3.23455 54.9839 3.19312 53.9431 3.19653C53.7445 3.1971 53.5459 3.21327 53.2763 3.22519C53.2763 3.5044 53.2763 3.74219 53.2763 3.98026C53.2763 8.14434 53.2763 12.3087 53.276 16.4731C53.276 18.0627 53.0493 18.2837 51.4257 18.2812C51.283 18.2809 51.1394 18.2868 50.9972 18.2772C50.2169 18.2253 49.898 17.9287 49.814 17.1623C49.7898 16.9413 49.7969 16.7163 49.7969 16.4929C49.7961 12.3286 49.7964 8.1642 49.7964 3.99984V3.19483Z" fill="#F25A1C"/>
<path d="M21.6976 15.3772C23.8067 15.3772 25.8242 15.3801 27.8414 15.3752C28.34 15.3741 28.9699 15.3273 29.0987 15.8738C29.2432 16.4878 29.1972 17.1862 29.0528 17.8059C29.0011 18.0266 28.4197 18.2536 28.0772 18.2579C25.1804 18.2934 22.2827 18.2897 19.3853 18.2695C18.6299 18.2644 18.3337 17.9477 18.2332 17.2026C18.2035 16.9824 18.2006 16.7577 18.2006 16.5349C18.1989 11.7018 18.1981 6.86859 18.2023 2.03541C18.2029 1.73293 18.2369 1.42875 18.2764 1.12797C18.338 0.66006 18.6387 0.402411 19.0899 0.3607C19.5555 0.317569 20.0274 0.30395 20.4945 0.324096C21.3304 0.359849 21.6692 0.708866 21.6928 1.5397C21.7104 2.16878 21.6976 2.79871 21.6976 3.42808C21.6976 7.1444 21.6976 10.8607 21.6976 14.5768V15.3772Z" fill="#F25A1C"/>
<path d="M64.1193 9.28628C64.119 11.8262 64.1227 14.366 64.1173 16.9059C64.115 17.9532 63.7873 18.2671 62.7212 18.281C60.8661 18.3057 60.6793 18.1246 60.6793 16.3024C60.6793 11.4868 60.6788 6.6712 60.6799 1.85562C60.6799 0.587527 60.9503 0.319948 62.2252 0.312287C63.9905 0.301788 64.1193 0.426923 64.1196 2.15441C64.1196 4.5317 64.1196 6.90899 64.1193 9.28628Z" fill="#F25A1C"/>
<path d="M175.971 9.27972C175.971 11.8193 175.973 14.3589 175.97 16.8985C175.969 17.9334 175.626 18.2685 174.572 18.2804C174.286 18.2838 173.999 18.2932 173.715 18.2753C172.892 18.2234 172.539 17.859 172.536 17.039C172.529 15.1293 172.533 13.2194 172.533 11.3097C172.533 8.09959 172.532 4.88949 172.534 1.67967C172.535 0.655888 172.851 0.336382 173.88 0.313965C175.743 0.273388 176.018 0.387741 175.982 2.33174C175.938 4.64688 175.971 6.96373 175.971 9.27972Z" fill="#F25A1C"/>
<path d="M112.888 9.21278C111.943 9.43184 111.068 9.62423 110.199 9.84073C109.783 9.9443 109.374 10.0825 108.969 10.2246C107.744 10.6551 106.783 11.327 106.599 12.7518C106.441 13.9702 106.927 15.328 108.571 15.4244C110.053 15.5113 111.306 14.9352 112.419 13.9946C112.76 13.7069 112.959 13.3936 112.896 12.9231C112.855 12.6116 112.888 12.2898 112.888 11.9726V9.21278ZM113.011 16.32C112.073 17.0767 111.121 17.697 110.042 18.0954C108.545 18.6479 107.017 18.8292 105.461 18.3865C103.856 17.9297 102.858 16.8466 102.497 15.2343C102.075 13.3465 102.317 11.5722 103.673 10.0802C104.404 9.27663 105.332 8.75764 106.325 8.3496C108.028 7.64958 109.816 7.24751 111.611 6.87153C111.982 6.79378 112.351 6.70383 112.726 6.65191C112.961 6.61927 113.063 6.53188 113.048 6.29012C113.025 5.91103 113.068 5.52143 112.997 5.15284C112.754 3.90177 112.063 3.33312 110.728 3.21764C109.182 3.08427 107.826 3.45883 106.726 4.62704C106.115 5.2757 105.738 5.29074 104.983 4.82595C104.692 4.6469 104.398 4.46899 104.123 4.26724C103.412 3.7457 103.363 3.2026 103.94 2.53862C104.856 1.48419 105.991 0.757776 107.334 0.412732C109.471 -0.136331 111.622 -0.180595 113.734 0.542125C115.524 1.15418 116.556 2.46569 116.901 4.29675C117.046 5.06345 117.094 5.85711 117.102 6.63942C117.126 9.12709 117.098 11.6153 117.117 14.1033C117.124 14.9384 117.212 15.7729 117.264 16.6074C117.271 16.734 117.288 16.8602 117.291 16.9868C117.309 17.796 117.086 18.1541 116.296 18.2367C115.548 18.3147 114.782 18.258 114.027 18.216C113.599 18.1922 113.359 17.8803 113.259 17.4797C113.167 17.113 113.1 16.7405 113.011 16.32Z" fill="#F25A1C"/>
<path d="M2.37668 14.5903H11.9675C11.9258 13.7319 11.9369 12.8886 11.833 12.0598C11.6458 10.5647 10.8164 9.53948 9.36922 9.08406C7.93342 8.63204 6.46698 8.62069 5.01587 8.99581C3.68279 9.34001 2.81649 10.183 2.51316 11.5626C2.29354 12.5623 2.42775 13.5725 2.37668 14.5903ZM7.13664 17.3719C5.14072 17.3719 3.1448 17.3725 1.14859 17.3714C1.01636 17.3711 0.883566 17.3646 0.751904 17.3526C0.287683 17.3104 0.00109239 17.0289 0.00251116 16.5607C0.00733497 14.9759 -0.0224593 13.3889 0.0584105 11.8075C0.126795 10.475 0.520361 9.21828 1.37361 8.14853C2.12272 7.2093 3.10763 6.63186 4.25314 6.33335C6.07626 5.85863 7.91356 5.85722 9.72788 6.34896C11.8898 6.93463 13.3108 8.32161 13.9521 10.4847C14.2052 11.3379 14.3057 12.2144 14.3156 13.1003C14.3278 14.2135 14.3233 15.3272 14.3165 16.4407C14.3145 16.8124 14.2157 17.1571 13.8222 17.2948C13.6397 17.3586 13.4317 17.3685 13.2354 17.3688C11.2025 17.3739 9.16974 17.3719 7.13664 17.3719Z" fill="#F25A1C"/>
<path d="M6.33696 39.3806C6.33696 38.6369 6.34802 37.915 6.33242 37.1937C6.32447 36.8348 6.29723 36.4713 6.22743 36.12C5.97091 34.8318 5.08333 34.2734 3.77551 34.5157C3.19438 34.6232 2.78011 34.9612 2.5741 35.5074C2.45379 35.8261 2.36355 36.1739 2.3505 36.5119C2.31588 37.4247 2.32979 38.3393 2.32582 39.2532C2.32553 39.2944 2.33717 39.3355 2.34398 39.3806H6.33696ZM8.57208 39.3894C8.6941 39.3894 8.78206 39.3894 8.87002 39.3894C10.3583 39.3894 11.8463 39.3883 13.3346 39.39C14.0184 39.3908 14.3204 39.6905 14.317 40.376C14.315 40.7506 14.3189 41.1288 14.2704 41.4989C14.2191 41.8896 13.958 42.0956 13.561 42.1302C13.4438 42.1407 13.3255 42.1387 13.2075 42.1387C9.17761 42.1393 5.14774 42.1313 1.11788 42.1452C0.259239 42.1484 -0.00777386 41.8016 0.000171241 41.019C0.0135077 39.6766 -0.00834125 38.3341 0.00981897 36.992C0.0234391 35.9878 0.134954 34.9938 0.503266 34.0461C1.08269 32.5549 2.18876 31.7916 3.76728 31.6966C4.77887 31.6356 5.73228 31.8126 6.55715 32.4511C7.06876 32.8472 7.43537 33.3574 7.70862 33.9394C7.74239 34.0112 7.77559 34.0835 7.81843 34.1763C8.32124 33.934 8.8093 33.699 9.29707 33.4641C10.6807 32.7973 12.0645 32.1304 13.4481 31.4633C13.4677 31.454 13.4856 31.4398 13.5054 31.4307C14.0221 31.1952 14.3084 31.3657 14.3155 31.9315C14.3223 32.4695 14.3348 33.0098 14.292 33.5447C14.2551 34.0095 13.9177 34.2819 13.5199 34.4649C12.4453 34.9598 11.3668 35.4461 10.2899 35.9353C9.76129 36.1754 9.23153 36.4129 8.70545 36.658C8.65068 36.6836 8.57804 36.7522 8.57776 36.8016C8.56981 37.6554 8.57208 38.5092 8.57208 39.3894Z" fill="#F25A1C"/>
<path d="M5.82438 26.1846C5.82438 26.089 5.82438 26.0096 5.82438 25.9301C5.82438 24.868 5.84452 23.8054 5.81813 22.7438C5.79572 21.8296 6.08061 21.4914 7.0309 21.549C7.08963 21.5527 7.14865 21.5498 7.20768 21.5515C7.73404 21.5663 8.04049 21.871 8.04248 22.4014C8.04702 23.5667 8.04418 24.7321 8.04446 25.8975C8.04446 25.9854 8.04446 26.0734 8.04446 26.1798H12.0133V25.9293C12.0133 24.1592 12.0133 22.3892 12.0136 20.6188C12.0136 20.5084 12.0139 20.3975 12.0184 20.2871C12.0363 19.8464 12.2193 19.58 12.6504 19.5093C12.9784 19.4554 13.3291 19.4523 13.6571 19.5045C14.1088 19.5766 14.3083 19.8717 14.3174 20.3595C14.3236 20.6986 14.3191 21.0379 14.3191 21.3773C14.3191 23.5531 14.3197 25.7289 14.3174 27.9048C14.3171 28.0359 14.3026 28.1692 14.2765 28.2978C14.1954 28.6964 13.9341 28.9166 13.5232 28.9424C13.45 28.9473 13.3759 28.9459 13.3024 28.9459C9.20615 28.9461 5.11017 28.9461 1.0139 28.9453C0.903806 28.9453 0.790589 28.9493 0.684181 28.9263C0.255997 28.8343 0.0477218 28.5818 0.00941505 28.1173C-0.00023257 28.0001 0.00373985 27.8815 0.00373985 27.7634C0.0034561 25.433 0.00317242 23.1022 0.00459118 20.7715C0.00459118 20.6466 0.00998248 20.5206 0.0272914 20.3972C0.0800696 20.0187 0.29175 19.7565 0.672831 19.721C1.02724 19.6881 1.39215 19.7017 1.74599 19.7468C2.07656 19.7888 2.23915 20.0456 2.29533 20.3592C2.32144 20.503 2.32314 20.6526 2.32314 20.7999C2.32484 22.5035 2.32428 24.2072 2.32428 25.9111V26.1846H5.82438Z" fill="#F25A1C"/>
<path d="M25.7094 36.8426C25.2446 36.8426 24.7767 36.8755 24.3158 36.833C23.899 36.7941 23.638 36.9783 23.4124 37.2799C23.3939 37.3049 23.3729 37.3278 23.3545 37.3528C22.7569 38.1578 22.7674 39.4733 23.8706 40.0561C24.3048 40.2854 24.773 40.3929 25.2568 40.4318C25.984 40.4906 26.7065 40.4738 27.3926 40.1824C28.2243 39.8294 28.5611 39.1842 28.5055 38.4526C28.4581 37.8312 28.1553 37.3244 27.6658 36.9382C27.596 36.8832 27.4908 36.848 27.4011 36.8469C26.8373 36.8386 26.2735 36.8426 25.7094 36.8426ZM22.2354 36.8426H22.0049C21.0195 36.8426 20.034 36.8432 19.0485 36.8423C18.4833 36.842 18.2506 36.6091 18.2534 36.0373C18.2546 35.8089 18.252 35.5774 18.2878 35.3529C18.3335 35.0666 18.5537 34.8924 18.8451 34.8708C18.9501 34.8632 19.0556 34.8634 19.1612 34.8634C22.4584 34.8632 25.7556 34.8632 29.0531 34.8632C29.7778 34.8632 29.9923 35.0876 29.964 35.8143C29.9498 36.1769 29.7506 36.4195 29.3618 36.5486C29.2634 36.5813 29.1655 36.6142 29.0486 36.6531C29.1978 36.8401 29.344 37.0055 29.4708 37.1843C30.2278 38.2526 30.4009 39.3998 29.8505 40.6026C29.4932 41.3838 28.8201 41.8392 28.033 42.1236C26.9553 42.5129 25.845 42.558 24.7196 42.3988C23.9101 42.2844 23.1547 42.0279 22.5112 41.5092C21.6261 40.7962 21.259 39.8549 21.3668 38.735C21.4417 37.9555 21.6443 37.5494 22.2354 36.8426Z" fill="#188186"/>
<path d="M24.7669 28.3695C24.5512 28.3967 24.3611 28.4146 24.173 28.4458C23.494 28.559 22.9824 29.0275 22.8294 29.6697C22.668 30.3481 22.9046 31.0005 23.4699 31.4042C23.8538 31.6783 24.2908 31.81 24.7669 31.8724V28.3695ZM26.0997 31.9093C26.6896 31.8801 27.2381 31.7998 27.7392 31.5297C28.4401 31.1517 28.6447 30.4764 28.5777 29.7494C28.5244 29.1671 28.25 28.7086 27.8022 28.3437C27.7307 28.2852 27.6671 28.216 27.6047 28.1473C27.4311 27.9569 27.4001 27.745 27.5196 27.5145C27.6107 27.3386 27.6915 27.1565 27.7974 26.9902C27.9963 26.6775 28.2276 26.6298 28.534 26.8378C29.1656 27.2665 29.6486 27.8247 29.9011 28.55C30.2655 29.5953 30.2981 30.6506 29.8696 31.6874C29.5164 32.5415 28.8654 33.1124 28.0156 33.4328C26.493 34.0068 24.9465 34.0593 23.4409 33.4092C22.002 32.7881 21.2946 31.6375 21.2901 30.0672C21.2869 29.1021 21.5469 28.2307 22.2619 27.5426C22.8252 27.0007 23.5209 26.7186 24.2777 26.5906C24.6789 26.5228 25.0887 26.4945 25.4959 26.4766C25.9096 26.4581 26.0991 26.6596 26.0994 27.0716C26.1 28.603 26.0997 30.1344 26.0997 31.6659V31.9093Z" fill="#188186"/>
<path d="M85.5596 30.8205V31.0761C85.5596 34.3577 85.5596 37.6396 85.5596 40.9212C85.5596 41.0342 85.5605 41.1471 85.5588 41.2598C85.5491 41.8381 85.2969 42.1652 84.7211 42.2177C84.2836 42.2577 83.8341 42.2302 83.3957 42.1808C83.0186 42.1383 82.7896 41.8517 82.749 41.4714C82.732 41.3114 82.7249 41.1497 82.7246 40.9888C82.7235 36.5943 82.7235 32.2001 82.7238 27.8056C82.7241 26.8422 82.9982 26.5687 83.9595 26.5684C84.5009 26.5684 85.0429 26.5874 85.5832 26.5633C86.1686 26.5375 86.5726 26.7906 86.8521 27.2812C87.2621 28.0019 87.6722 28.7227 88.0796 29.4451C89.48 31.9274 90.8789 34.4102 92.2786 36.8928C92.2979 36.9271 92.322 36.9589 92.3984 36.9918V36.7313C92.3984 33.7562 92.3984 30.7807 92.3987 27.8056C92.3987 27.7168 92.3961 27.628 92.4012 27.5394C92.4375 26.9061 92.7658 26.5803 93.4012 26.5727C93.7712 26.5684 94.1463 26.563 94.5112 26.6141C94.9451 26.6751 95.1638 26.9487 95.2064 27.3876C95.2203 27.5318 95.2265 27.6773 95.2265 27.822C95.2277 32.2086 95.2277 36.5949 95.2274 40.9811C95.2274 41.9771 94.9638 42.2381 93.9618 42.2381C93.7116 42.2381 93.4596 42.2208 93.2108 42.2416C92.549 42.2969 92.1101 41.9961 91.7943 41.4365C91.3079 40.5739 90.8003 39.7232 90.3028 38.8666C88.7782 36.2416 87.2545 33.6163 85.7299 30.9913C85.6941 30.9297 85.6538 30.871 85.6155 30.8108C85.5968 30.8139 85.5784 30.8174 85.5596 30.8205Z" fill="#188186"/>
<path d="M36.9997 39.6602C37.948 39.6145 38.87 39.6102 39.7828 39.5174C41.4135 39.352 42.6558 38.2803 43.1013 36.7125C43.5312 35.1998 43.5499 33.6721 43.1958 32.1461C42.7943 30.4155 41.4998 29.3156 39.7388 29.2044C39.0059 29.1582 38.269 29.1689 37.5338 29.155C37.3584 29.1519 37.183 29.1547 36.9997 29.1547V39.6602ZM33.9727 34.3647C33.9727 32.1685 33.9727 29.972 33.9729 27.7757C33.9729 27.6628 33.9724 27.5496 33.9778 27.4366C34.0033 26.8825 34.3296 26.5405 34.8832 26.5425C36.6059 26.5488 38.3305 26.5263 40.0504 26.6021C41.3363 26.6589 42.5633 27.0175 43.6586 27.7334C44.9627 28.5858 45.7249 29.8182 46.1108 31.296C46.5242 32.8796 46.5549 34.4882 46.3086 36.0979C46.0864 37.5482 45.5836 38.8861 44.5734 39.9927C43.6322 41.0242 42.4464 41.6232 41.1051 41.9461C40.1488 42.1765 39.1756 42.242 38.1949 42.2389C37.1592 42.2355 36.1235 42.2398 35.0878 42.2361C34.9522 42.2358 34.814 42.219 34.6809 42.1918C34.2439 42.1016 34.0144 41.8363 33.9812 41.3894C33.9715 41.2608 33.9729 41.1311 33.9729 41.002C33.9727 38.7896 33.9727 36.5772 33.9727 34.3647Z" fill="#188186"/>
<path d="M99.5862 34.3809C99.6106 35.5597 99.7031 36.7398 100.171 37.8532C100.634 38.955 101.374 39.7569 102.608 39.9876C103.991 40.2461 105.336 39.7379 106.092 38.4559C106.525 37.7202 106.746 36.9174 106.864 36.0829C107.01 35.0551 107.013 34.0226 106.902 32.992C106.808 32.1225 106.611 31.2775 106.196 30.4966C105.381 28.9661 104.005 28.4539 102.476 28.7802C101.307 29.0296 100.613 29.8517 100.173 30.9106C99.7136 32.0173 99.6134 33.1878 99.5862 34.3809ZM109.972 35.0702C109.965 36.0474 109.741 37.643 108.988 39.1202C107.994 41.069 106.403 42.1796 104.219 42.4342C102.876 42.5905 101.572 42.4614 100.339 41.8834C98.9441 41.2288 97.9952 40.1383 97.3908 38.7425C96.6698 37.0775 96.4933 35.3261 96.6059 33.5342C96.6862 32.2534 96.9476 31.0142 97.5046 29.8502C98.2602 28.2714 99.4245 27.1319 101.12 26.599C102.29 26.2313 103.489 26.1915 104.69 26.4174C106.905 26.8334 108.356 28.1738 109.209 30.2075C109.742 31.4779 109.975 32.8316 109.972 35.0702Z" fill="#188186"/>
<path d="M60.3686 42.5229C59.239 42.4895 58.1417 42.3419 57.129 41.8073C55.9384 41.1785 55.1986 40.1686 54.7341 38.9377C54.6124 38.6145 54.7046 38.3418 55.0309 38.213C55.5908 37.9923 56.1685 37.8092 56.7505 37.6532C57.0754 37.5663 57.3001 37.7863 57.4576 38.0527C57.5722 38.2468 57.6653 38.4536 57.7794 38.648C58.2146 39.3903 58.8675 39.8142 59.7106 39.9714C60.4154 40.1028 61.1075 40.0778 61.7936 39.867C62.6213 39.6125 63.18 38.9871 63.2626 38.2403C63.3633 37.3288 62.9641 36.672 62.1758 36.2886C61.4979 35.9592 60.7798 35.7041 60.0636 35.4634C58.9935 35.1036 57.9019 34.8051 56.9309 34.2022C55.9423 33.5881 55.2823 32.7343 55.0641 31.5831C54.6385 29.3378 55.662 27.4661 57.8086 26.7009C59.6184 26.0559 61.4483 26.1018 63.2155 26.8955C64.2609 27.3651 64.9731 28.1923 65.441 29.2274C65.6044 29.5895 65.5148 29.9007 65.1552 30.063C64.6941 30.271 64.2101 30.4311 63.7277 30.5866C63.5055 30.6584 63.2904 30.5678 63.1321 30.3993C62.9891 30.2472 62.8588 30.0806 62.7408 29.9087C62.1072 28.9845 61.1949 28.6412 60.1206 28.7022C59.718 28.7249 59.3014 28.8202 58.9283 28.9732C58.2544 29.2495 57.9107 29.8006 57.8883 30.5276C57.8687 31.1694 58.1965 31.6285 58.7194 31.965C59.3377 32.3629 60.0346 32.572 60.7276 32.7885C61.7894 33.1205 62.8662 33.4102 63.8517 33.9471C65.0202 34.5835 65.8408 35.4964 66.0437 36.8448C66.2988 38.5385 65.9585 40.0608 64.5914 41.2222C63.8003 41.8944 62.85 42.2253 61.8384 42.3805C61.3527 42.4551 60.8586 42.4773 60.3686 42.5229Z" fill="#188186"/>
<path d="M71.7757 29.0893V32.9262C71.8847 32.9262 71.9795 32.9262 72.0743 32.9262C73.3449 32.9265 74.6153 32.9239 75.8859 32.929C76.374 32.9307 76.719 33.1078 76.7857 33.5019C76.8566 33.9213 76.8555 34.3708 76.7863 34.7908C76.7224 35.1786 76.374 35.3574 75.9083 35.3585C74.6215 35.3611 73.335 35.3597 72.0482 35.3597C71.9613 35.3597 71.8745 35.3597 71.7749 35.3597V39.7108H72.0513C74.0015 39.7108 75.9517 39.7105 77.902 39.7108C78.0152 39.7108 78.1287 39.7113 78.2419 39.7159C78.7371 39.7354 79.0316 39.9429 79.1079 40.4264C79.1636 40.7794 79.1655 41.1556 79.1082 41.508C79.0248 42.0188 78.6959 42.2359 78.1244 42.237C76.7488 42.2401 75.3732 42.2381 73.9973 42.2381C72.6216 42.2381 71.246 42.2396 69.8703 42.2364C69.7344 42.2362 69.5962 42.2203 69.4632 42.1927C69.0231 42.1025 68.781 41.8205 68.7501 41.3716C68.743 41.2669 68.7461 41.1616 68.7461 41.0566C68.7458 36.615 68.7458 32.1731 68.7461 27.7315C68.7461 27.6024 68.7387 27.4713 68.7569 27.3445C68.8196 26.9041 69.0602 26.6578 69.5069 26.5786C69.6487 26.5534 69.7957 26.5466 69.9407 26.5466C72.5382 26.5449 75.136 26.5449 77.7334 26.546C77.8543 26.546 77.9772 26.5457 78.0961 26.5647C78.6185 26.6476 78.8855 26.9379 78.8946 27.4634C78.9002 27.792 78.8929 28.1254 78.8426 28.4491C78.785 28.8228 78.5052 29.0013 78.1503 29.0598C77.9996 29.0847 77.8441 29.0879 77.6909 29.0882C75.8215 29.0899 73.9521 29.0893 72.0828 29.0893H71.7757Z" fill="#188186"/>
<path d="M49.069 34.4133C49.069 32.2006 49.0687 29.9879 49.069 27.7752C49.0693 26.8297 49.3499 26.5491 50.2973 26.5502C50.5964 26.5505 50.8975 26.5392 51.1943 26.5678C51.7839 26.6251 52.0509 26.9188 52.0875 27.5113C52.0932 27.5998 52.0904 27.6889 52.0904 27.7777C52.0907 32.1949 52.0907 36.6124 52.0904 41.0296C52.0904 41.1184 52.0932 41.2075 52.0867 41.296C52.0447 41.863 51.8095 42.1663 51.2519 42.2148C50.757 42.258 50.2505 42.2327 49.7551 42.1816C49.3513 42.1396 49.1266 41.8496 49.0851 41.4385C49.0707 41.2943 49.0695 41.1482 49.0695 41.0029C49.0687 38.8064 49.069 36.6098 49.069 34.4133Z" fill="#188186"/>
<path d="M118.661 39.733C118.848 39.1283 119.026 38.5631 119.198 37.9962C119.765 36.1265 120.326 34.2549 120.898 32.3869C121.13 31.6313 121.431 31.419 122.223 31.425C122.646 31.4284 123.072 31.4224 123.49 31.4752C123.899 31.5272 124.055 31.7641 123.955 32.1676C123.841 32.6295 123.683 33.0816 123.53 33.5333C122.648 36.1438 121.774 38.7572 120.872 41.3609C120.383 42.7726 119.875 44.1794 119.316 45.5642C118.968 46.4254 118.439 47.185 117.599 47.6659C116.979 48.0209 116.297 48.1509 115.598 48.1597C115.014 48.1667 114.425 48.1358 113.845 48.0637C113.383 48.0064 113.254 47.803 113.253 47.3441C113.252 47.0822 113.249 46.8201 113.253 46.5579C113.261 46.1195 113.467 45.9152 113.907 45.9129C114.277 45.9109 114.647 45.9288 115.016 45.9174C115.934 45.8893 116.523 45.3984 116.864 44.5727C116.902 44.4811 116.943 44.3906 116.979 44.2983C117.296 43.4905 117.289 43.4928 116.973 42.6395C115.715 39.235 114.46 35.8291 113.205 32.4238C113.183 32.3645 113.163 32.3038 113.151 32.2422C113.045 31.7283 113.163 31.5028 113.68 31.4551C114.244 31.4032 114.817 31.4188 115.384 31.4446C115.828 31.4647 116.106 31.7488 116.24 32.1599C116.548 33.1011 116.849 34.0443 117.147 34.9892C117.627 36.5181 118.103 38.0487 118.581 39.5781C118.594 39.6181 118.62 39.6539 118.661 39.733Z" fill="#188186"/>
<path d="M167.474 38.2612C167.685 37.562 167.895 36.8628 168.106 36.164C168.971 33.3049 169.833 30.4449 170.703 27.5872C170.926 26.8551 171.332 26.5626 172.103 26.5541C172.761 26.5467 173.419 26.5467 174.076 26.5538C174.844 26.5623 175.198 26.9113 175.198 27.6792C175.201 32.165 175.201 36.6512 175.199 41.1373C175.198 41.9086 174.88 42.2346 174.12 42.2542C173.804 42.2624 173.485 42.2604 173.17 42.234C172.708 42.1954 172.445 41.9355 172.387 41.4795C172.363 41.2945 172.36 41.1058 172.36 40.9185C172.358 37.5688 172.359 34.2188 172.359 30.8688V30.5002C172.33 30.4963 172.301 30.492 172.273 30.488C172.075 31.1378 171.876 31.7871 171.68 32.4371C170.791 35.3868 169.906 38.3372 169.012 41.2854C168.785 42.0365 168.468 42.2519 167.677 42.259C166.597 42.2686 166.246 42.3782 165.788 40.8365C164.771 37.4139 163.722 34.0006 162.685 30.5839C162.673 30.5437 162.657 30.5048 162.574 30.4724V30.8328C162.574 34.218 162.575 37.6029 162.572 40.9881C162.572 41.1745 162.562 41.3635 162.529 41.5465C162.457 41.9426 162.196 42.1966 161.792 42.2283C161.419 42.2576 161.041 42.261 160.667 42.2403C160.133 42.2102 159.838 41.9086 159.781 41.3771C159.769 41.2613 159.776 41.1433 159.776 41.0261C159.775 36.6219 159.775 32.2178 159.776 27.8137C159.776 26.8602 160.083 26.5535 161.039 26.5524C161.673 26.5515 162.307 26.545 162.941 26.5546C163.679 26.5663 164.073 26.8642 164.278 27.5637C165.322 31.1239 166.362 34.6853 167.404 38.2461C167.427 38.2513 167.451 38.2561 167.474 38.2612Z" fill="#188186"/>
<path d="M194.241 30.8768V31.2491C194.241 34.5281 194.241 37.8075 194.24 41.0868C194.24 41.9588 193.958 42.2474 193.092 42.2565C192.799 42.2596 192.504 42.2604 192.212 42.2346C191.727 42.1923 191.453 41.8989 191.418 41.4134C191.409 41.2852 191.411 41.1561 191.411 41.0272C191.411 36.612 191.411 32.1968 191.411 27.7816C191.411 27.7112 191.41 27.6409 191.412 27.5708C191.427 26.925 191.699 26.595 192.334 26.5657C193.061 26.532 193.791 26.5388 194.517 26.5646C195.058 26.5839 195.367 26.9565 195.613 27.3937C196.283 28.5866 196.957 29.777 197.631 30.9682C198.723 32.9025 199.816 34.8372 200.91 36.7709C200.952 36.8458 201.008 36.9125 201.124 36.9676C201.124 36.8447 201.124 36.7216 201.124 36.5987C201.124 33.7061 201.124 30.8132 201.124 27.9207C201.124 27.7802 201.123 27.6392 201.131 27.499C201.165 26.9343 201.391 26.6503 201.952 26.5808C202.333 26.5334 202.729 26.5342 203.11 26.5811C203.652 26.6477 203.901 26.9511 203.952 27.4982C203.961 27.5912 203.957 27.6854 203.957 27.7791C203.957 32.2059 203.958 36.633 203.955 41.0599C203.954 41.233 203.935 41.4109 203.893 41.5786C203.79 41.9897 203.552 42.2051 203.132 42.2326C202.7 42.261 202.263 42.2377 201.83 42.2613C201.248 42.2931 200.843 42.0363 200.559 41.5488C199.812 40.2651 199.062 38.9831 198.315 37.6997C197.02 35.4762 195.727 33.2521 194.433 31.0286C194.399 30.9696 194.359 30.9134 194.322 30.8561C194.295 30.8629 194.268 30.87 194.241 30.8768Z" fill="#188186"/>
<path d="M221.418 34.3038C221.409 35.5248 221.505 36.6383 221.911 37.7049C222.25 38.5953 222.755 39.3515 223.65 39.7723C225.5 40.6426 227.515 39.7735 228.258 37.7656C228.922 35.9703 228.903 34.1205 228.599 32.2636C228.45 31.3539 228.126 30.5061 227.528 29.7833C226.223 28.2065 223.217 28.164 222.077 30.7007C221.548 31.8786 221.406 33.1243 221.418 34.3038ZM218.297 34.4511C218.393 32.7508 218.638 31.1073 219.444 29.5927C220.491 27.6237 222.122 26.5267 224.362 26.3295C226.097 26.1766 227.703 26.4839 229.1 27.5738C230.189 28.4247 230.88 29.5617 231.269 30.865C232.045 33.4614 232.05 36.0603 231.051 38.6016C229.98 41.3264 227.713 42.5891 224.925 42.5318C223.19 42.4964 221.654 41.9635 220.436 40.6852C219.523 39.7275 218.971 38.5669 218.703 37.2906C218.508 36.3565 218.428 35.3983 218.297 34.4511Z" fill="#188186"/>
<path d="M134.454 35.598C133.844 33.4088 133.245 31.2569 132.645 29.1046C132.62 29.1088 132.594 29.1128 132.569 29.1168C131.971 31.2679 131.373 33.4193 130.768 35.598H134.454ZM132.665 26.5545C133.017 26.5545 133.37 26.5431 133.722 26.5568C134.404 26.5829 134.828 26.899 135.021 27.5377C136.112 31.1448 137.197 34.7536 138.285 38.3615C138.568 39.2999 138.855 40.2371 139.136 41.1763C139.182 41.3321 139.225 41.4924 139.24 41.6536C139.272 41.9833 139.102 42.2143 138.77 42.2262C138.125 42.2489 137.478 42.254 136.835 42.2254C136.408 42.2063 136.219 41.8658 136.112 41.5077C135.843 40.6023 135.59 39.6917 135.341 38.78C135.157 38.1075 135.165 38.1055 134.483 38.1055C133.121 38.1055 131.759 38.1138 130.397 38.0984C130.131 38.0953 130.027 38.1935 129.964 38.431C129.709 39.389 129.44 40.3438 129.176 41.2995C128.963 42.0738 128.733 42.2543 127.939 42.2571C127.528 42.2588 127.116 42.2654 126.707 42.2421C126.169 42.2115 125.978 41.9385 126.129 41.4141C126.438 40.3495 126.759 39.2885 127.079 38.2273C128.133 34.7311 129.193 31.2367 130.243 27.7392C130.504 26.868 130.901 26.5553 131.82 26.5522C132.101 26.5514 132.383 26.5522 132.665 26.5522V26.5545Z" fill="#188186"/>
<path d="M181.718 39.7146H182.151C184.018 39.7146 185.885 39.7138 187.752 39.7163C187.927 39.7163 188.102 39.7359 188.277 39.7515C188.706 39.7898 188.995 40.0208 189.037 40.4442C189.076 40.8326 189.063 41.2336 189.013 41.6212C188.966 41.9878 188.685 42.1733 188.33 42.2281C188.157 42.2548 187.979 42.2568 187.804 42.2571C185.197 42.2588 182.591 42.2585 179.984 42.2576C179.843 42.2576 179.702 42.2562 179.562 42.2449C178.984 42.1983 178.674 41.8751 178.661 41.2883C178.651 40.8085 178.658 40.3281 178.658 39.848C178.658 35.8079 178.658 31.7678 178.658 27.7275C178.659 26.8461 178.958 26.5434 179.834 26.5428C182.453 26.5417 185.071 26.5417 187.689 26.5428C188.536 26.5431 188.823 26.8305 188.835 27.6789C188.851 28.8503 188.628 29.0764 187.456 29.0764C185.554 29.0764 183.653 29.0764 181.721 29.0764V32.9454C181.839 32.9454 181.963 32.9454 182.087 32.9454C183.296 32.9454 184.505 32.9437 185.715 32.946C186.453 32.9474 186.764 33.2411 186.808 33.9698C186.816 34.0983 186.816 34.2277 186.808 34.3559C186.766 35.0815 186.451 35.3914 185.719 35.3959C184.51 35.4038 183.301 35.3982 182.091 35.3984C181.975 35.3984 181.859 35.3984 181.718 35.3984V39.7146Z" fill="#188186"/>
<path d="M239.175 42.5342C237.939 42.518 236.719 42.339 235.637 41.6364C234.657 41.0002 234.014 40.0973 233.621 39.0119C233.477 38.6153 233.557 38.3741 233.952 38.216C234.492 37.9995 235.052 37.8188 235.618 37.6831C235.779 37.6448 236.012 37.7884 236.172 37.9036C236.295 37.9927 236.375 38.1596 236.442 38.3065C237.061 39.6592 238.186 40.1535 239.587 40.0755C240.121 40.0457 240.692 39.9129 241.163 39.6677C242.441 39.0029 242.539 37.2493 241.313 36.4968C240.578 36.0456 239.713 35.8021 238.903 35.475C237.908 35.0729 236.865 34.7627 235.921 34.2665C234.295 33.4126 233.698 31.9343 233.862 30.1747C234.023 28.4416 235.047 27.2881 236.652 26.7144C238.523 26.0455 240.405 26.0892 242.22 26.9632C243.165 27.4181 243.812 28.1828 244.269 29.1089C244.523 29.6211 244.413 29.9196 243.887 30.1455C243.522 30.3016 243.142 30.4216 242.768 30.5535C242.378 30.6909 242.093 30.5368 241.845 30.2383C241.562 29.8981 241.301 29.5241 240.96 29.2522C240.105 28.5695 238.573 28.502 237.631 29.0508C236.53 29.6923 236.408 31.1968 237.481 31.8699C238.182 32.3094 239.01 32.5509 239.789 32.8602C240.808 33.2648 241.879 33.5636 242.85 34.0604C244.569 34.9409 245.143 36.4786 244.971 38.3261C244.812 40.0349 243.914 41.2366 242.351 41.9434C241.35 42.3963 240.285 42.5294 239.175 42.5342Z" fill="#188186"/>
<path d="M210.396 29.0765C209.331 29.0765 208.323 29.0771 207.314 29.0762C206.452 29.0757 206.149 28.7752 206.147 27.9177C206.146 27.7889 206.145 27.6597 206.148 27.5309C206.163 26.8979 206.501 26.5463 207.13 26.5454C210.325 26.5409 213.52 26.5412 216.714 26.5452C217.348 26.546 217.691 26.8933 217.707 27.5207C217.712 27.6847 217.711 27.8487 217.709 28.0127C217.701 28.7468 217.369 29.0737 216.621 29.076C215.693 29.0785 214.765 29.0765 213.838 29.0765H213.416V29.5197C213.416 33.3737 213.417 37.2279 213.416 41.0819C213.416 41.9754 213.142 42.2509 212.242 42.2566C211.902 42.2589 211.56 42.2608 211.221 42.2342C210.772 42.1984 210.513 41.9513 210.444 41.5151C210.413 41.3196 210.398 41.1196 210.398 40.9215C210.396 37.1377 210.396 33.3538 210.396 29.57V29.0765Z" fill="#188186"/>
<path d="M144.555 39.7145H145.588C147.032 39.7145 148.476 39.7125 149.921 39.7168C150.119 39.7173 150.319 39.7366 150.515 39.7687C150.865 39.8257 151.111 40.0408 151.152 40.3824C151.199 40.7726 151.198 41.1755 151.158 41.5671C151.119 41.9445 150.849 42.1602 150.478 42.2246C150.307 42.2547 150.128 42.2564 149.952 42.2566C147.569 42.2586 145.185 42.2583 142.802 42.2569C142.649 42.2569 142.496 42.2524 142.345 42.2356C141.919 42.1888 141.666 41.9686 141.573 41.5444C141.537 41.3753 141.528 41.1971 141.528 41.0232C141.526 36.6199 141.526 32.2169 141.526 27.8136C141.526 26.8596 141.833 26.5492 142.788 26.5546C143.139 26.5566 143.495 26.5523 143.838 26.6127C144.307 26.6962 144.512 26.9652 144.547 27.4387C144.558 27.5903 144.554 27.7429 144.554 27.895C144.555 31.6777 144.555 35.4602 144.555 39.2426V39.7145Z" fill="#188186"/>
<path d="M156.263 34.4046C156.263 36.6417 156.264 38.8791 156.263 41.1162C156.263 41.5512 156.246 42.0636 155.738 42.1425C155.105 42.2415 154.441 42.2101 153.797 42.1553C153.474 42.128 153.311 41.8134 153.279 41.4819C153.262 41.3074 153.258 41.1312 153.258 40.9556C153.257 36.5985 153.257 32.2412 153.258 27.8839C153.258 27.7551 153.257 27.626 153.265 27.4974C153.298 26.9452 153.51 26.6473 154.053 26.5945C154.572 26.544 155.106 26.5715 155.626 26.6306C156.002 26.6731 156.204 26.964 156.243 27.3422C156.261 27.5167 156.263 27.6932 156.263 27.8686C156.264 30.0472 156.263 32.2259 156.263 34.4046Z" fill="#188186"/>
<path d="M87.4722 21.9649C88.0459 21.9524 88.7383 22.2969 89.4585 22.5466C89.8208 22.6723 90.1988 22.7605 90.5753 22.8371C91.0043 22.9245 91.3287 22.7506 91.5551 22.382C91.878 21.8559 92.3913 21.6698 92.9957 21.8539C93.2534 21.9325 93.4094 22.1462 93.3595 22.4262C93.1722 23.4818 92.416 24.7371 90.8401 24.7613C90.0172 24.7737 89.2956 24.4662 88.5519 24.1983C88.1989 24.0712 87.8334 23.9721 87.4665 23.8921C87.0009 23.7905 86.6936 23.9384 86.4362 24.3419C86.1195 24.8384 85.4853 25.0467 84.9258 24.8373C84.6755 24.7437 84.5325 24.5045 84.6003 24.213C84.8994 22.9316 85.7262 21.9498 87.4722 21.9649Z" fill="#188186"/>
</svg>
